<svg width="209" height="19" viewBox="0 0 209 19" fill="none" xmlns="http://www.w3.org/2000/svg">
<g id="Fyrre Magazine">
<path d="M3.64366 17.8791V11.3031H9.94814V8.15911H3.64366V3.81511H11.1227V0.647109H0V17.8791H3.64366Z" fill="white"/>
<path d="M21.7267 11.3991L27.8634 0.647109H24.1958L20.0248 8.06311L15.9256 0.647109H11.9943L18.0831 11.3991V17.8791H21.7267V11.3991Z" fill="white"/>
<path d="M33.4207 17.8791V11.7831H35.698L39.5813 17.8791H43.9202L39.4854 11.2311C41.9305 10.4151 43.3688 8.56711 43.3688 6.23911C43.3688 2.66311 40.8518 0.647109 36.513 0.647109H29.777V17.8791H33.4207ZM33.4207 3.67111H36.3452C38.5506 3.67111 39.7252 4.53511 39.7252 6.23911C39.7252 7.91911 38.5506 8.78311 36.3452 8.78311H33.4207V3.67111Z" fill="white"/>
<path d="M49.8308 17.8791V11.7831H52.1081L55.9915 17.8791H60.3303L55.8956 11.2311C58.3407 10.4151 59.7789 8.56711 59.7789 6.23911C59.7789 2.66311 57.2619 0.647109 52.9231 0.647109H46.1871V17.8791H49.8308ZM49.8308 3.67111H52.7553C54.9607 3.67111 56.1353 4.53511 56.1353 6.23911C56.1353 7.91911 54.9607 8.78311 52.7553 8.78311H49.8308V3.67111Z" fill="white"/>
<path d="M74.1755 14.7111H66.2409V10.5831H73.2885V7.43911H66.2409V3.81511H74.0077V0.647109H62.5973V17.8791H74.1755V14.7111Z" fill="white"/>
<path d="M89.8185 17.8791H92.8629L97.4175 6.33511V17.8791H100.726V0.647109H96.3627L91.3527 13.4151L86.3666 0.647109H82.0038V17.8791H85.3119V6.43111L89.8185 17.8791Z" fill="white"/>
<path d="M115.749 17.8791H119.657L113.232 0.647109H109.253L102.781 17.8791H106.448L107.767 14.1831H114.455L115.749 17.8791ZM111.147 4.63111L113.448 11.2791H108.798L111.147 4.63111Z" fill="white"/>
<path d="M128.609 18.2391C134.099 18.2391 137.503 14.2071 137.287 8.59111H128.418V11.4951H133.404C132.924 13.6311 131.318 15.1431 128.777 15.1431C125.325 15.1431 123.479 12.5991 123.479 9.28711C123.479 5.59111 125.589 3.55111 128.37 3.55111C130.671 3.55111 132.253 4.87111 132.78 6.62311H137.071C135.945 2.87911 132.828 0.287109 128.466 0.287109C123.432 0.287109 119.74 4.10311 119.74 9.19111C119.74 14.5191 123.623 18.2391 128.609 18.2391Z" fill="white"/>
<path d="M150.419 17.8791H154.326L147.902 0.647109H143.923L137.45 17.8791H141.118L142.436 14.1831H149.124L150.419 17.8791ZM145.816 4.63111L148.118 11.2791H143.467L145.816 4.63111Z" fill="white"/>
<path d="M169.2 17.8791V14.7351H160.067L168.912 3.57511V0.647109H155.656V3.79111H164.429L155.632 14.9991V17.8791H169.2Z" fill="white"/>
<path d="M175.494 17.8791V0.647109H171.85V17.8791H175.494Z" fill="white"/>
<path d="M190.232 17.8791H193.804V0.647109H190.448V12.0711L182.945 0.647109H179.013V17.8791H182.345V5.85511L190.232 17.8791Z" fill="white"/>
<path d="M208.921 14.7111H200.987V10.5831H208.034V7.43911H200.987V3.81511H208.753V0.647109H197.343V17.8791H208.921V14.7111Z" fill="white"/>
</g>
</svg>
