<svg width="20" height="21" viewBox="0 0 20 21" fill="none" xmlns="http://www.w3.org/2000/svg">
<g id="ri:twitter-fill">
<path id="Vector" d="M18.4683 5.00038C17.8321 5.28179 17.1574 5.46661 16.4666 5.54871C17.1947 5.11324 17.7397 4.42789 17.9999 3.62038C17.3166 4.02705 16.5674 4.31205 15.7866 4.46621C15.2621 3.90503 14.5669 3.53285 13.809 3.40754C13.0512 3.28222 12.2732 3.41079 11.596 3.77326C10.9187 4.13573 10.3802 4.71178 10.0642 5.41188C9.74812 6.11197 9.67221 6.89686 9.84825 7.64455C8.46251 7.57509 7.10686 7.21498 5.86933 6.5876C4.63179 5.96022 3.54003 5.07959 2.66492 4.00288C2.35516 4.53492 2.19238 5.13974 2.19326 5.75538C2.19326 6.96371 2.80826 8.03121 3.74326 8.65621C3.18993 8.63879 2.64878 8.48937 2.16492 8.22038V8.26371C2.16509 9.06846 2.44356 9.84839 2.95313 10.4713C3.46269 11.0941 4.17199 11.5216 4.96075 11.6812C4.4471 11.8204 3.90851 11.8409 3.38576 11.7412C3.60814 12.4339 4.04159 13.0397 4.62541 13.4738C5.20924 13.9079 5.9142 14.1485 6.64159 14.162C5.91866 14.7298 5.0909 15.1495 4.20566 15.3972C3.32041 15.6448 2.39503 15.7156 1.48242 15.6054C3.0755 16.6299 4.93 17.1738 6.82409 17.172C13.2349 17.172 16.7408 11.8612 16.7408 7.25538C16.7408 7.10538 16.7366 6.95371 16.7299 6.80538C17.4123 6.31219 18.0013 5.70123 18.4691 5.00121L18.4683 5.00038Z" fill="white"/>
</g>
</svg>
